<svg width="64" height="64" viewBox="0 0 1024 1024" fill="none" xmlns="http://www.w3.org/2000/svg">
  <defs>
    <linearGradient id="amber" x1="0" y1="0" x2="0" y2="1">
      <stop offset="0" stop-color="#F8B84E"/>
      <stop offset="1" stop-color="#E7961B"/>
    </linearGradient>
  </defs>
  <!-- ShiftKal mark: orange calendar + alarm bell -->
  <rect width="1024" height="1024" rx="224" fill="#000000"/>
  <g fill="url(#amber)">
    <rect x="300" y="118" width="76" height="170" rx="38"/>
    <rect x="648" y="118" width="76" height="170" rx="38"/>
    <rect x="150" y="212" width="724" height="172" rx="42"/>
    <rect x="150" y="404" width="222" height="468" rx="26"/>
    <rect x="652" y="404" width="222" height="196" rx="26"/>
    <rect x="652" y="628" width="222" height="244" rx="26"/>
    <circle cx="512" cy="436" r="34"/>
    <path d="M416 700 C398 700 392 684 400 668 C430 606 430 556 430 512 C430 460 464 424 512 424 C560 424 594 460 594 512 C594 556 594 606 624 668 C632 684 626 700 608 700 Z"/>
    <path d="M476 726 A38 34 0 0 0 548 726 Z"/>
  </g>
</svg>
